<svg width="100" height="100" viewBox="0 0 100 100" color="black" fill="none" xmlns="http://www.w3.org/2000/svg">
  <path d="M57.8755 57.9866C57.9263 57.9663 57.9665 57.926 57.9869 57.8752L68.3883 31.8716C68.4536 31.7083 68.2916 31.5463 68.1284 31.6116L42.1247 42.0131C42.0739 42.0334 42.0336 42.0737 42.0133 42.1245L31.6118 68.1281C31.5465 68.2914 31.7086 68.4534 31.8718 68.3881L57.8755 57.9866Z" fill="currentcolor"/>
  <path d="M50 87.5C70.7107 87.5 87.5 70.7107 87.5 50C87.5 29.2893 70.7107 12.5 50 12.5C29.2893 12.5 12.5 29.2893 12.5 50C12.5 70.7107 29.2893 87.5 50 87.5Z" stroke="currentcolor" stroke-width="3"/>
</svg>
